<?xml version="1.0" encoding="UTF-8"?>
<svg version="1.1" viewBox="0 0 16 16" xmlns="http://www.w3.org/2000/svg">
 <path d="m12 2c1.2904-0.062856 1.2904 2.0629 0 2-4.2748-0.11036-8.1104 3.7252-8 8 0.062856 1.2904-2.0629 1.2904-2 0-0.11495-5.3723 4.626-10.115 10-10zm0 4c1.2904-0.062856 1.2904 2.0629 0 2-2.391-0.077862-4.1277 2.1804-4.099 4.4339-0.39036 0.94987-1.9614 0.59129-1.901-0.43388-0.069934-3.2222 2.7767-6.0697 6-6zm0 4c1.7956-0.10082 2.7259 2.4551 1.2856 3.5321-1.3107 1.2314-3.6663-0.12859-3.2552-1.8794 0.14671-0.93329 1.025-1.6703 1.9696-1.6527z" fill="#e0e0e0"/>
</svg>
